<svg id="visual" viewBox="0 0 900 600" width="900" height="600" xmlns="http://www.w3.org/2000/svg" xmlns:xlink="http://www.w3.org/1999/xlink" version="1.1"><rect x="0" y="0" width="900" height="600" fill="#fff"></rect><defs><linearGradient id="grad1_0" x1="33.3%" y1="0%" x2="100%" y2="100%"><stop offset="20%" stop-color="#ffffff" stop-opacity="1"></stop><stop offset="80%" stop-color="#ffffff" stop-opacity="1"></stop></linearGradient></defs><defs><linearGradient id="grad2_0" x1="0%" y1="0%" x2="66.7%" y2="100%"><stop offset="20%" stop-color="#ffffff" stop-opacity="1"></stop><stop offset="80%" stop-color="#ffffff" stop-opacity="1"></stop></linearGradient></defs><g transform="translate(900, 0)"><path d="M0 486.7C-54.9 488.7 -109.9 490.8 -150.4 462.9C-191 435.1 -217.2 377.5 -244.5 336.6C-271.9 295.6 -300.3 271.5 -334.9 243.3C-369.5 215.2 -410.2 183.1 -436.5 141.8C-462.9 100.6 -474.8 50.3 -486.7 0L0 0Z" fill="#1b1b1b"></path></g><g transform="translate(0, 600)"><path d="M0 -486.7C39.9 -451.7 79.9 -416.7 132.9 -409C185.9 -401.2 252 -420.6 286.1 -393.8C320.2 -367 322.5 -293.9 335.7 -243.9C349 -193.9 373.4 -166.9 400.4 -130.1C427.4 -93.3 457.1 -46.6 486.7 0L0 0Z" fill="#1b1b1b"></path></g></svg>