<svg id="visual" viewBox="0 0 900 600" width="900" height="600" xmlns="http://www.w3.org/2000/svg" xmlns:xlink="http://www.w3.org/1999/xlink" version="1.1"><rect x="0" y="0" width="900" height="600" fill="#fff"></rect><defs><linearGradient id="grad1_0" x1="33.3%" y1="0%" x2="100%" y2="100%"><stop offset="20%" stop-color="#ffffff" stop-opacity="1"></stop><stop offset="80%" stop-color="#ffffff" stop-opacity="1"></stop></linearGradient></defs><defs><linearGradient id="grad2_0" x1="0%" y1="0%" x2="66.7%" y2="100%"><stop offset="20%" stop-color="#ffffff" stop-opacity="1"></stop><stop offset="80%" stop-color="#ffffff" stop-opacity="1"></stop></linearGradient></defs><g transform="translate(900, 0)"><path d="M0 513.8C-55.2 510.9 -110.4 508.1 -158.8 488.6C-207.1 469.2 -248.6 433.3 -289.8 398.8C-331 364.4 -371.9 331.4 -398.8 289.8C-425.8 248.1 -438.7 197.8 -455.6 148C-472.4 98.3 -493.1 49.1 -513.8 0L0 0Z" fill="#1b1b1b"></path></g><g transform="translate(0, 600)"><path d="M0 -513.8C52.7 -505.8 105.4 -497.7 157 -483.1C208.5 -468.5 258.9 -447.4 302 -415.7C345.1 -384 381.1 -341.7 407.7 -296.2C434.4 -250.7 451.8 -202 467.9 -152C484 -102.1 498.9 -51.1 513.8 0L0 0Z" fill="#1b1b1b"></path></g></svg>