<?xml version="1.0" standalone="no"?>
<!DOCTYPE svg PUBLIC "-//W3C//DTD SVG 20010904//EN"
 "http://www.w3.org/TR/2001/REC-SVG-20010904/DTD/svg10.dtd">
<svg version="1.0" xmlns="http://www.w3.org/2000/svg"
 width="500.000000pt" height="500.000000pt" viewBox="0 0 500.000000 500.000000"
 preserveAspectRatio="xMidYMid meet">
<metadata>
Created by potrace 1.14, written by Peter Selinger 2001-2017
</metadata>
<g transform="translate(0.000000,500.000000) scale(0.100000,-0.100000)"
fill="#000000" stroke="none">
<path d="M2663 4057 c-25 -14 -59 -52 -61 -68 -6 -53 -6 -329 0 -329 5 0 8 -6
8 -13 0 -7 11 -23 25 -35 14 -12 25 -20 25 -18 0 3 13 1 28 -3 18 -6 40 -3 64
6 42 17 61 54 63 120 1 24 4 45 7 48 3 3 2 25 -2 50 -4 27 -3 45 3 45 5 0 5 5
-1 13 -7 8 -7 18 -2 27 5 8 7 17 5 20 -2 4 -6 17 -9 31 -9 47 -25 78 -52 95
-30 20 -75 25 -101 11z"/>
<path d="M1639 3631 c-66 -26 -92 -92 -60 -150 15 -29 186 -211 197 -211 3 0
18 -9 33 -19 51 -36 127 -10 146 51 21 65 9 89 -116 216 -104 105 -151 132
-200 113z"/>
<path d="M3678 3616 c-42 -29 -176 -164 -170 -171 3 -3 -2 -5 -12 -5 -9 0 -14
-4 -11 -10 3 -5 2 -10 -3 -10 -11 0 -43 -86 -35 -93 2 -3 5 -11 7 -19 10 -62
108 -97 155 -54 9 9 21 13 24 9 4 -3 7 0 7 8 0 8 13 23 29 34 17 11 28 21 26
23 -4 5 77 82 86 82 13 0 61 80 65 109 14 88 -92 150 -168 97z"/>
<path d="M2655 3261 c-2 -2 -26 -3 -52 -4 -26 0 -52 -2 -58 -6 -11 -6 -32 -12
-52 -13 -7 -1 -13 -5 -13 -10 0 -5 -4 -7 -8 -4 -5 3 -22 -2 -38 -10 -16 -9
-39 -18 -51 -20 -29 -6 -174 -100 -166 -108 4 -3 1 -6 -5 -6 -6 0 -36 -25 -67
-55 -30 -30 -63 -55 -72 -56 -34 -2 -78 3 -83 10 -3 3 -18 7 -35 8 -54 3 -106
11 -112 17 -3 3 -12 1 -19 -5 -8 -6 -14 -7 -18 0 -4 6 -12 8 -19 6 -7 -3 -41
-7 -77 -10 -131 -11 -146 -13 -219 -34 -41 -12 -79 -25 -85 -29 -6 -3 -18 -8
-28 -9 -19 -3 -85 -39 -110 -61 -10 -8 -18 -12 -18 -7 0 4 -7 2 -15 -5 -8 -7
-15 -10 -15 -6 0 6 -21 -11 -89 -71 -20 -18 -42 -33 -50 -33 -8 0 -12 -2 -9
-5 3 -3 -21 -32 -54 -65 -32 -33 -57 -61 -56 -63 3 -3 -12 -22 -45 -58 -9 -10
-14 -19 -11 -19 3 0 -3 -12 -13 -27 -10 -16 -28 -46 -38 -68 -11 -22 -24 -43
-29 -46 -5 -4 -5 -12 -2 -18 4 -6 3 -11 -2 -11 -10 0 -24 -38 -27 -72 -1 -10
-8 -25 -16 -34 -8 -10 -13 -19 -11 -21 1 -1 2 -4 1 -5 0 -2 -2 -10 -4 -18 -2
-8 -7 -26 -11 -40 -7 -26 -9 -342 -2 -395 2 -17 7 -36 11 -43 5 -6 6 -12 2
-12 -3 0 1 -13 9 -28 8 -15 16 -41 18 -57 2 -17 16 -56 31 -89 15 -32 27 -62
27 -67 0 -5 4 -9 9 -9 5 0 12 -8 15 -17 7 -19 18 -39 51 -87 74 -111 221 -242
335 -301 19 -10 37 -21 40 -25 7 -9 119 -53 136 -53 8 0 14 -4 14 -9 0 -5 4
-7 8 -4 5 3 20 -1 35 -9 15 -8 35 -14 44 -13 10 0 29 -3 43 -6 14 -4 40 -7 58
-8 17 -1 32 -6 32 -12 0 -6 5 -4 10 4 5 8 10 10 10 5 0 -12 1237 -13 1278 -1
30 8 62 16 92 22 13 3 31 11 39 17 8 7 17 11 20 11 3 -1 17 3 31 8 14 6 35 14
48 19 12 5 22 14 22 20 0 7 3 9 6 6 6 -6 54 23 80 48 6 5 26 21 45 34 19 12
52 47 74 77 22 29 43 53 48 54 4 0 7 7 7 15 0 8 5 15 10 15 6 0 10 7 10 16 0
8 7 22 15 31 8 8 13 18 10 23 -3 4 2 11 11 14 9 4 14 9 11 13 -4 3 -2 12 4 20
6 7 8 13 5 13 -4 0 0 12 8 28 8 15 18 41 22 57 8 33 8 34 17 55 7 19 7 31 7
164 1 59 -4 114 -10 121 -5 6 -7 14 -4 17 3 3 -1 22 -10 41 -8 19 -12 37 -10
40 3 3 -5 24 -18 48 -12 24 -23 50 -25 57 -1 8 -8 21 -16 30 -8 10 -17 25 -20
35 -4 9 -11 17 -17 17 -5 0 -10 8 -10 17 0 9 -7 25 -16 34 -20 22 -27 69 -13
86 6 7 13 25 15 40 2 15 7 46 10 68 8 48 8 217 1 260 -10 57 -17 83 -32 117
-8 20 -11 38 -8 42 4 3 1 6 -5 6 -7 0 -12 7 -12 15 0 34 -97 184 -119 185 -8
0 -11 3 -8 7 10 9 -124 133 -144 133 -5 0 -9 4 -9 8 0 4 -25 19 -55 32 -30 13
-55 27 -55 30 0 6 -95 33 -106 30 -4 -1 -10 4 -14 10 -7 11 -63 18 -183 23
-32 1 -60 0 -62 -2z m170 -223 c53 -9 147 -52 188 -86 9 -8 17 -11 17 -7 0 4
8 -2 19 -13 10 -12 24 -22 30 -22 6 0 15 -8 18 -17 4 -9 18 -29 32 -44 31 -32
99 -155 105 -190 3 -13 5 -25 7 -26 1 -2 3 -7 4 -13 1 -5 3 -11 4 -12 2 -3 11
-93 13 -128 2 -43 -22 -95 -43 -95 -21 1 -122 36 -136 48 -7 5 -13 6 -13 2 0
-4 -6 -3 -12 2 -23 18 -162 34 -263 31 -72 -2 -99 0 -102 10 -3 6 -11 12 -19
12 -9 0 -12 5 -9 10 3 6 2 10 -2 10 -5 0 -16 12 -25 28 -21 34 -60 82 -120
146 -27 28 -48 54 -48 59 0 4 -5 5 -10 2 -6 -3 -13 1 -16 9 -3 9 -10 16 -16
16 -5 0 -15 6 -22 13 -7 6 -32 27 -55 46 -22 19 -41 38 -41 42 0 21 66 74 138
111 23 12 42 26 42 31 0 4 5 5 10 2 6 -4 17 -1 25 5 8 7 32 14 52 17 21 3 39
6 40 7 3 2 187 -3 208 -6z m-1000 -258 c0 -1 84 -12 108 -13 9 -1 17 -4 17 -7
0 -3 11 -7 25 -8 33 -2 49 -6 55 -12 3 -3 30 -13 60 -23 50 -17 156 -79 211
-125 44 -35 133 -137 151 -172 7 -14 16 -27 20 -30 3 -3 8 -12 10 -20 2 -8 10
-22 19 -30 9 -8 15 -23 13 -32 -1 -10 1 -18 6 -18 4 0 13 -20 20 -45 7 -25 21
-50 31 -56 13 -6 19 -6 19 1 0 5 3 9 8 8 4 -1 24 6 46 15 55 24 78 28 193 32
67 2 110 -2 125 -10 13 -6 32 -11 41 -9 9 1 17 -2 17 -7 0 -5 5 -9 10 -9 15 0
103 -42 118 -57 7 -7 17 -13 21 -13 23 0 120 -113 152 -178 13 -26 29 -50 34
-54 6 -4 6 -8 1 -8 -5 0 -4 -6 2 -12 16 -20 36 -230 24 -252 -3 -6 -7 -28 -8
-50 -5 -76 -20 -114 -80 -199 -19 -26 -34 -52 -34 -57 0 -6 -7 -10 -15 -10 -8
0 -15 -7 -15 -15 0 -8 -4 -15 -8 -15 -5 0 -17 -8 -28 -18 -28 -26 -78 -57 -86
-54 -5 1 -8 -3 -8 -9 0 -5 -4 -8 -9 -5 -5 3 -14 -1 -21 -9 -7 -8 -16 -12 -21
-9 -5 3 -9 0 -9 -6 0 -6 -4 -9 -9 -5 -5 3 -12 1 -16 -4 -3 -6 -12 -8 -20 -4
-8 3 -15 1 -15 -3 0 -14 -92 -17 -537 -18 -275 -1 -423 -5 -423 -11 0 -5 -5
-3 -10 5 -7 11 -10 11 -10 2 0 -7 -5 -10 -11 -7 -6 4 -67 8 -137 10 -186 5
-250 9 -258 18 -4 4 -19 7 -34 7 -15 0 -30 3 -34 7 -4 5 -11 8 -14 9 -12 1
-66 24 -87 35 -10 7 -39 22 -64 36 -24 13 -60 35 -79 50 -45 34 -143 132 -162
162 -8 13 -22 33 -31 45 -9 11 -22 36 -30 54 -8 17 -17 32 -21 32 -5 0 -8 9
-8 19 0 11 -4 22 -9 25 -7 5 -15 30 -27 90 -3 11 -9 25 -14 31 -9 11 -13 46
-23 183 -1 17 0 32 3 32 3 0 5 14 5 30 0 17 -4 30 -8 30 -5 0 -5 5 -1 11 3 6
8 25 9 42 4 45 16 87 25 87 5 0 7 8 5 18 -1 9 1 22 6 28 5 6 10 19 12 30 2 10
8 29 15 40 6 12 8 24 5 28 -3 3 -2 6 3 6 6 0 18 20 28 45 10 24 22 42 27 40 4
-3 10 3 13 12 3 10 20 33 36 50 17 18 29 34 28 36 -2 2 15 19 37 38 22 19 53
46 70 61 16 16 34 28 38 28 4 0 17 9 29 20 12 10 25 17 30 14 4 -3 8 0 8 6 0
6 5 8 10 5 6 -3 10 -2 10 3 0 5 15 16 33 23 32 14 36 15 70 17 10 1 16 6 13
10 -3 5 0 9 7 9 24 2 83 12 130 22 27 6 52 9 57 6 5 -3 11 -1 14 4 4 6 101 8
101 1z"/>
<path d="M3947 2603 c-3 -5 -26 -8 -51 -7 -54 1 -80 -21 -94 -81 -8 -41 -4
-56 30 -104 17 -24 19 -24 190 -24 95 0 182 3 193 6 47 15 70 97 45 157 -15
36 -44 48 -108 46 -29 0 -52 2 -52 6 0 4 -11 3 -24 -2 -13 -5 -26 -6 -29 -4
-10 10 -57 11 -63 2 -3 -5 -11 -4 -19 2 -7 6 -15 7 -18 3z"/>
</g>
</svg>
